PathFileType	4	(X/Y/Z)	TVC_58_BWA_04_walk_RCNL2025.trc
DataRate	CameraRate	NumFrames	NumMarkers	Units	OrigDataRate	OrigDataStartFrame	OrigNumFrames
100	100	7	27	mm	100	164	437
Frame#	Time	R_Shoulder			L_Shoulder			C7			J_Notch			R_Elbow			L_Elbow			R_Wrist			L_Wrist			R_Asis			L_Asis			R_Psis			L_Psis			Sacral			Thoracic			Sternum			R_Thigh_Lateral			R_Knee_Lateral			R_Shank_Lateral			R_Ankle_Lateral			R_Heel			R_Toe			L_Thigh_Lateral			L_Knee_Lateral			L_Shank_Lateral			L_Ankle_Lateral			L_Heel			L_Toe		
		X1	Y1	Z1	X2	Y2	Z2	X3	Y3	Z3	X4	Y4	Z4	X5	Y5	Z5	X6	Y6	Z6	X7	Y7	Z7	X8	Y8	Z8	X9	Y9	Z9	X10	Y10	Z10	X11	Y11	Z11	X12	Y12	Z12	X13	Y13	Z13	X14	Y14	Z14	X15	Y15	Z15	X16	Y16	Z16	X17	Y17	Z17	X18	Y18	Z18	X19	Y19	Z19	X20	Y20	Z20	X21	Y21	Z21	X22	Y22	Z22	X23	Y23	Z23	X24	Y24	Z24	X25	Y25	Z25	X26	Y26	Z26	X27	Y27	Z27
164	1.63000000	-172.571594	1343.967896	43.814747	-167.572433	1350.520386	-313.020447	-231.373749	1414.380859	-143.902771	-82.862144	1325.063599	-133.318542	-189.820358	1025.530884	116.389664	-226.862686	1029.309204	-370.252319	-84.907997	801.549713	164.269295	-143.143204	801.550903	-436.541428	-45.024681	910.495178	17.695965	-37.158203	911.291260	-288.429230	-272.489807	937.074463	-82.008484	-272.966278	940.711487	-193.156265	-272.728043	938.892975	-137.582375	-267.280090	1106.089844	-138.464798	32.327160	1091.428223	-134.447540	-51.085030	697.690613	103.189331	-9.246400	464.964325	34.376183	-148.406769	316.130554	80.865562	-322.591827	200.256958	-6.374181	-360.663147	232.372223	-63.352741	-264.967255	83.803352	-34.711277	-117.696465	666.837952	-365.614380	-50.527855	468.559174	-256.843140	-78.173019	275.769165	-297.967102	-115.129066	55.860195	-189.293549	-158.581131	55.391205	-137.108215	23.853132	48.556519	-155.257172
165	1.64000000	-166.404373	1345.042725	42.279602	-159.427765	1350.846680	-314.555695	-224.057617	1415.240234	-145.921692	-75.752762	1325.504761	-134.441360	-186.679932	1027.024658	115.926414	-217.334427	1029.564209	-372.490723	-83.270426	802.884583	166.293320	-132.296806	802.237885	-438.229935	-39.146469	911.719177	17.654398	-31.079403	911.069275	-288.940552	-266.554321	938.023560	-82.636139	-267.158203	941.554138	-193.386276	-266.856262	939.788849	-138.011208	-260.746216	1107.125977	-139.952667	38.761433	1091.418213	-134.498062	-42.034176	699.794922	103.015877	7.320409	468.522949	33.305096	-129.714096	317.726929	79.857117	-302.446442	199.708588	-6.680604	-341.517334	229.823212	-64.233612	-240.289597	85.663651	-31.826340	-111.592857	667.250977	-365.928680	-48.839596	468.400665	-256.870087	-78.345428	275.910187	-298.157379	-115.100822	55.910191	-189.347473	-158.520401	55.503185	-137.123627	23.902662	48.469952	-155.291321
166	1.65000000	-160.248917	1346.102905	40.784790	-151.359421	1351.191406	-316.022949	-216.763382	1416.075928	-147.868683	-68.686195	1325.896606	-135.521317	-183.586868	1028.510864	115.452042	-207.767395	1029.856812	-374.694641	-81.645700	804.245148	168.275078	-121.469288	802.943512	-439.831284	-33.190971	913.079285	17.481541	-25.240686	910.995850	-289.709717	-260.575684	939.003418	-83.085548	-261.411469	942.301025	-193.479004	-260.993576	940.652222	-138.282276	-254.272827	1108.133179	-141.380997	45.049343	1091.529541	-134.660446	-33.006260	701.952698	102.765114	23.317911	472.292053	32.127121	-110.997444	319.027740	78.871674	-281.692047	197.975052	-6.947786	-321.802612	226.082535	-64.993370	-214.960907	86.563667	-29.355009	-105.408531	667.637878	-366.155975	-47.197701	468.227386	-256.793457	-78.544701	276.095123	-298.308075	-115.060005	55.980797	-189.372025	-158.475067	55.628227	-137.125259	23.957970	48.366486	-155.273972
167	1.66000000	-154.096390	1347.146484	39.330490	-143.375290	1351.559204	-317.422180	-209.491135	1416.883789	-149.738983	-61.659798	1326.243164	-136.562500	-180.511841	1029.987427	114.959221	-198.190506	1030.188354	-376.840424	-80.031118	805.614014	170.193893	-110.667267	803.672699	-441.332642	-27.146732	914.546326	17.165823	-19.625040	911.065857	-290.717773	-254.543564	939.997314	-83.364815	-255.699036	942.954895	-193.461472	-255.121300	941.476105	-138.413143	-247.848862	1109.106323	-142.744308	51.205227	1091.756104	-134.951645	-23.996052	704.141113	102.436180	38.654613	476.201080	30.871820	-92.244186	319.991455	77.936935	-260.329285	195.072479	-7.151463	-301.510010	221.203018	-65.569931	-189.086075	86.499138	-27.374098	-99.314362	667.983643	-366.301422	-45.597366	468.039429	-256.624451	-78.616959	276.316620	-298.392731	-115.008606	56.069168	-189.370865	-158.448578	55.769173	-137.117447	24.015997	48.251266	-155.209976
168	1.67000000	-147.937057	1348.167725	37.917137	-135.481323	1351.948975	-318.754364	-202.240417	1417.657959	-151.528671	-54.669949	1326.546021	-137.569427	-177.424316	1031.448608	114.442787	-188.633575	1030.553589	-378.905792	-78.422119	806.972137	172.030807	-99.896450	804.425354	-442.723587	-21.005922	916.081360	16.702448	-14.208378	911.256409	-291.927521	-248.452881	940.989319	-83.485466	-249.996719	943.519897	-193.359894	-249.224800	942.254608	-138.422680	-241.463669	1110.039062	-144.037048	57.249462	1092.078735	-135.382904	-15.005151	706.334473	102.033119	53.260452	480.172607	29.566324	-73.535912	320.651154	77.080925	-238.354248	191.052185	-7.282488	-280.631378	215.248123	-65.930679	-162.702301	85.527184	-25.927889	-93.460892	668.268799	-366.373383	-44.032272	467.837372	-256.378998	-78.454536	276.550568	-298.388855	-114.949234	56.172592	-189.348267	-158.440689	55.927444	-137.103119	24.075254	48.129215	-155.104965
169	1.68000000	-141.760056	1349.156982	36.545486	-127.681618	1352.354736	-320.021423	-195.010223	1418.391113	-153.234650	-47.712090	1326.804443	-138.546783	-174.293579	1032.885254	113.899773	-179.125900	1030.940430	-380.870850	-76.812311	808.299377	173.768608	-89.161736	805.196686	-443.996292	-14.764437	917.639038	16.093559	-8.960800	911.529541	-293.286804	-242.303146	941.964722	-83.461716	-244.284225	944.001282	-193.197998	-243.293686	942.983002	-138.329857	-235.107117	1110.924072	-145.253403	63.207626	1092.467651	-135.959076	-6.041920	708.504028	101.564056	67.089218	484.124908	28.233437	-55.023945	321.080139	76.328766	-215.758286	185.997406	-7.346930	-259.157318	208.292648	-66.071754	-135.796539	83.759995	-25.031492	-87.962959	668.470581	-366.381836	-42.494770	467.621826	-256.076782	-78.008469	276.765289	-298.285492	-114.885353	56.288246	-189.309082	-158.447815	56.102642	-137.083481	24.135490	48.004147	-154.965088
170	1.69000000	-135.553482	1350.102173	35.216667	-119.978668	1352.765259	-321.225952	-187.798920	1419.074097	-154.854614	-40.780849	1327.015869	-139.499374	-171.089890	1034.285767	113.329224	-169.695023	1031.331055	-382.718872	-75.193581	809.574707	175.392006	-78.467457	805.977386	-445.145676	-8.421455	919.170654	15.348077	-3.847755	911.836365	-294.733826	-236.097061	942.909790	-83.309669	-238.545593	944.404663	-192.995636	-237.321327	943.657227	-138.152653	-228.769714	1111.752808	-146.387436	69.109253	1092.885254	-136.678406	2.879776	710.617981	101.039993	80.117607	487.974487	26.890091	-36.876087	321.347961	75.693443	-192.528122	180.018723	-7.364777	-237.075516	200.424530	-66.014420	-108.329323	81.354073	-24.676943	-82.890648	668.567505	-366.337250	-40.975826	467.392914	-255.739609	-77.279251	276.936340	-298.081665	-114.821075	56.413040	-189.258377	-158.464142	56.292507	-137.058228	24.197195	47.878101	-154.797104
